<svg width="661" height="196" viewBox="0 0 661 196" fill="none" xmlns="http://www.w3.org/2000/svg">
<path fill-rule="evenodd" clip-rule="evenodd" d="M0 196L3.55916e-05 102.983C3.82653e-05 95.9949 7.03877 91.2027 13.5401 93.764C16.8461 95.0664 20.5963 94.4989 23.3689 92.2765L31.5402 85.7267C35.4679 82.5785 40.6378 81.4394 45.5248 82.6453C52.1929 84.2908 59.1729 81.5435 62.9306 75.7944L63.2531 75.301C69.4199 65.8663 82.8942 64.9368 90.298 73.4355L94.4286 78.1769L113.314 104.934L126.488 122.723C130.197 127.732 135.421 131.412 141.386 133.219L145.741 134.538C149.272 135.608 152.566 137.342 155.447 139.646L167.074 148.946C168.998 150.484 171.11 151.772 173.359 152.777L181.958 156.618C186.45 158.625 191.448 159.213 196.283 158.304C203.524 156.942 209.748 152.353 213.189 145.838L226.629 120.393L233.611 110.328C240.04 101.061 252.986 99.2037 261.761 106.29C263.507 107.7 265.484 108.796 267.605 109.531L279.898 113.788C282.148 114.567 284.293 115.621 286.286 116.924L288.954 118.67C297.01 123.942 307.397 124.042 315.553 118.927C319.161 116.665 322.121 113.506 324.145 109.76L334.296 90.9735C337.598 84.8624 344.692 81.8528 351.381 83.7254C356.049 85.0321 361.061 83.9809 364.81 80.9086L377.714 70.3348L390.143 62.4771C394.301 59.848 399.282 58.8421 404.135 59.6515C411.163 60.8236 418.284 58.1723 422.835 52.6897L434.371 38.7893L446.99 22.7906C451.048 17.6457 456.729 14.0267 463.107 12.5234L467.713 11.4378C470.648 10.7459 473.458 9.60037 476.04 8.04245L481.558 4.71335C487.658 1.03371 494.898 -0.2724 501.898 1.04406L504.455 1.52488C508.062 2.20311 511.507 3.55974 514.608 5.52273L526.862 13.281C528.152 14.0974 529.504 14.8108 530.906 15.4144L547.686 22.639L564.002 32.5937C565.707 33.6336 567.258 34.906 568.611 36.3742L571.313 39.3056C578.77 47.3958 591.669 46.9855 598.597 38.4379C602.21 33.9807 607.727 31.5073 613.458 31.7755L613.945 31.7983C619.802 32.0724 625.459 29.6271 629.272 25.1719L637.061 16.0727C640.192 12.4141 645.025 10.6838 649.767 11.5231C656.265 12.6731 661 18.3203 661 24.919V196" fill="url(#paint0_linear_1_22016)" fill-opacity="0.25"/>
<defs>
<linearGradient id="paint0_linear_1_22016" x1="330.5" y1="-1" x2="330.5" y2="190.317" gradientUnits="userSpaceOnUse">
<stop stop-color="#7854DF"/>
<stop offset="0.825064" stop-color="#7854DF" stop-opacity="0.14"/>
<stop offset="1" stop-color="#7854DF" stop-opacity="0"/>
</linearGradient>
</defs>
</svg>
