<svg width="40" height="40" viewBox="0 0 40 40" fill="none" xmlns="http://www.w3.org/2000/svg">
<g clip-path="url(#clip0_38_3915)">
<path d="M18.2031 0.828125C14.7188 1.25 12.0547 2.19531 9.35938 3.96875C8.16406 4.76562 7.41406 5.38281 6.32812 6.47656C3.45312 9.375 1.65625 12.9453 0.960938 17.1484C0.757812 18.375 0.757812 21.6328 0.960938 22.8516C1.67188 27.1094 3.45312 30.6328 6.36719 33.5547C9.34375 36.5469 12.8594 38.3359 17.1484 39.0391C18.375 39.2344 21.625 39.2344 22.8516 39.0391C27.8047 38.2266 31.9766 35.8203 35.0078 32.0312C37.1484 29.3594 38.4453 26.4062 39.0391 22.8516C39.2422 21.6328 39.2422 18.375 39.0391 17.1484C38.6875 15.0312 38.1562 13.3438 37.2656 11.5234C36.2891 9.53906 35.1562 7.96094 33.5547 6.36719C31.1406 3.96094 28.1328 2.22656 24.9453 1.39844C23.2266 0.960938 22.3203 0.84375 20.3125 0.820312C19.3047 0.804688 18.3516 0.8125 18.2031 0.828125ZM21.9297 4.57031C23.6562 4.79688 25.1719 5.24219 26.7578 6.01562C32.125 8.60938 35.5469 14.0625 35.5469 20C35.5469 25.9375 32.1172 31.3906 26.7578 33.9844C20.8047 36.8672 13.7422 35.6875 9.05469 31.0156C6.07812 28.0469 4.45312 24.1406 4.45312 19.9297C4.45312 14.0625 7.90625 8.60156 13.2422 6.01562C15.9609 4.69531 18.9922 4.19531 21.9297 4.57031Z" fill="#FFC800"/>
<path d="M18.75 6.02354C16.4844 6.21104 14.1094 7.04698 12.1797 8.34385C7.4375 11.5314 5.11719 17.2189 6.25 22.836C7.10156 27.0392 9.91406 30.672 13.7891 32.5782C20.7422 36.0079 29.1641 33.1564 32.5781 26.211C35.6875 19.8907 33.6641 12.2814 27.8203 8.35166C25.8203 7.00791 23.5625 6.21885 21.1172 6.01573C20.0937 5.92979 19.8203 5.92979 18.75 6.02354ZM18.4375 12.2267V13.5157H18.9844H19.5312V12.2267V10.9376H20.3516H21.1719V12.2267V13.5157H22.1406C23.2969 13.5157 23.8984 13.672 24.4922 14.1251C25.9375 15.2267 26.1172 17.2657 24.8828 18.586C24.4531 19.047 23.7422 19.4298 23.1719 19.5001L22.7734 19.5548L23.4219 19.6954C24.2422 19.8751 24.7344 20.1407 25.2734 20.711C26.5469 22.047 26.5547 23.9767 25.2969 25.3517C24.5625 26.1642 23.6094 26.4767 21.8984 26.4845H21.1719V27.7735V29.0626H20.3516H19.5312V27.7735V26.4845H18.9844H18.4375V27.7735V29.0626H17.6172H16.7969V27.7735V26.4845H15.2734H13.75V25.7032V24.922H14.6094H15.4687V20.0001V15.0782H14.6094H13.75V14.297V13.5157H15.2734H16.7969V12.2267V10.9376H17.6172H18.4375V12.2267Z" fill="#FFC800"/>
<path d="M18.4375 17.1562V18.8359L19.9922 18.8125L21.5469 18.7891L21.8906 18.5547C22.3672 18.2109 22.6094 17.75 22.6094 17.1406C22.6094 16.4688 22.3203 15.9922 21.7266 15.6875C21.3125 15.4688 21.2969 15.4688 19.875 15.4688H18.4375V17.1562Z" fill="#FFC800"/>
<path d="M18.4375 22.5078V24.3828L20.0234 24.3594L21.6172 24.3359L22 24.1016C23.0469 23.4531 23.1953 21.8828 22.2812 21.0859C21.7969 20.6562 21.6328 20.625 19.9609 20.625H18.4375V22.5078Z" fill="#FFC800"/>
</g>
<defs>
<clipPath id="clip0_38_3915">
<rect width="40" height="40" fill="white"/>
</clipPath>
</defs>
</svg>
