<svg width="40" height="40" viewBox="0 0 40 40" fill="none" xmlns="http://www.w3.org/2000/svg">
<g clip-path="url(#clip0_38_3924)">
<path d="M18.2031 0.828125C14.7188 1.25 12.0547 2.19531 9.35938 3.96875C8.16406 4.76562 7.41406 5.38281 6.32812 6.47656C3.45312 9.375 1.65625 12.9453 0.960938 17.1484C0.757812 18.375 0.757812 21.6328 0.960938 22.8516C1.67188 27.1094 3.45312 30.6328 6.36719 33.5547C9.34375 36.5469 12.8594 38.3359 17.1484 39.0391C18.375 39.2344 21.625 39.2344 22.8516 39.0391C27.8047 38.2266 31.9766 35.8203 35.0078 32.0312C37.1484 29.3594 38.4453 26.4062 39.0391 22.8516C39.2422 21.6328 39.2422 18.375 39.0391 17.1484C38.6875 15.0312 38.1562 13.3438 37.2656 11.5234C36.2891 9.53906 35.1562 7.96094 33.5547 6.36719C31.1406 3.96094 28.1328 2.22656 24.9453 1.39844C23.2266 0.960938 22.3203 0.84375 20.3125 0.820312C19.3047 0.804688 18.3516 0.8125 18.2031 0.828125ZM21.9297 4.57031C23.6562 4.79688 25.1719 5.24219 26.7578 6.01562C32.125 8.60938 35.5469 14.0625 35.5469 20C35.5469 25.9375 32.1172 31.3906 26.7578 33.9844C20.8047 36.8672 13.7422 35.6875 9.05469 31.0156C6.07812 28.0469 4.45312 24.1406 4.45312 19.9297C4.45312 14.0625 7.90625 8.60156 13.2422 6.01562C15.9609 4.69531 18.9922 4.19531 21.9297 4.57031Z" fill="#FFC800"/>
<circle cx="20" cy="20" r="14" fill="#FFC800"/>
<path d="M16.955 15.405C14.494 19.0125 13.9565 19.8213 14.0027 19.8589C14.0321 19.8853 15.3927 20.6 17.0306 21.4539L19.9997 23L22.9731 21.4539C24.6067 20.6 25.9674 19.8853 25.9968 19.8589C26.0472 19.8213 25.5222 19.0313 23.0445 15.405C21.3856 12.9824 20.0165 11 19.9997 11C19.9829 11 18.6139 12.9824 16.955 15.405Z" fill="#0F121D"/>
<path d="M14.0171 21.0467C14.1407 21.2447 20.0518 29 20.0816 29C20.1157 29 25.9501 21.1518 25.9885 21.0467C26.0225 20.9659 26.1716 20.881 22.9562 22.7764L20.0816 24.4697L17.1005 22.7521C15.4609 21.8065 14.0853 21.0225 14.047 21.0103C13.9959 20.9901 13.9873 20.9982 14.0171 21.0467Z" fill="#0F121D"/>
</g>
<defs>
<clipPath id="clip0_38_3924">
<rect width="40" height="40" fill="white"/>
</clipPath>
</defs>
</svg>
