<svg width="40" height="40" viewBox="0 0 40 40" fill="none" xmlns="http://www.w3.org/2000/svg">
<g clip-path="url(#clip0_38_3940)">
<path d="M18.2031 0.828125C14.7188 1.25 12.0547 2.19531 9.35938 3.96875C8.16406 4.76562 7.41406 5.38281 6.32812 6.47656C3.45312 9.375 1.65625 12.9453 0.960938 17.1484C0.757812 18.375 0.757812 21.6328 0.960938 22.8516C1.67188 27.1094 3.45312 30.6328 6.36719 33.5547C9.34375 36.5469 12.8594 38.3359 17.1484 39.0391C18.375 39.2344 21.625 39.2344 22.8516 39.0391C27.8047 38.2266 31.9766 35.8203 35.0078 32.0312C37.1484 29.3594 38.4453 26.4062 39.0391 22.8516C39.2422 21.6328 39.2422 18.375 39.0391 17.1484C38.6875 15.0312 38.1562 13.3438 37.2656 11.5234C36.2891 9.53906 35.1562 7.96094 33.5547 6.36719C31.1406 3.96094 28.1328 2.22656 24.9453 1.39844C23.2266 0.960938 22.3203 0.84375 20.3125 0.820312C19.3047 0.804688 18.3516 0.8125 18.2031 0.828125ZM21.9297 4.57031C23.6562 4.79688 25.1719 5.24219 26.7578 6.01562C32.125 8.60938 35.5469 14.0625 35.5469 20C35.5469 25.9375 32.1172 31.3906 26.7578 33.9844C20.8047 36.8672 13.7422 35.6875 9.05469 31.0156C6.07812 28.0469 4.45312 24.1406 4.45312 19.9297C4.45312 14.0625 7.90625 8.60156 13.2422 6.01562C15.9609 4.69531 18.9922 4.19531 21.9297 4.57031Z" fill="#FFC800"/>
<circle cx="20" cy="20" r="14" fill="#FFC800"/>
<path d="M25.3864 16.5015C25.0392 16.2878 24.5927 16.2878 24.1958 16.5015L21.4178 18.2641L19.5326 19.3858L16.8042 21.1484C16.4569 21.362 16.0104 21.362 15.6136 21.1484L13.4804 19.7596C13.1332 19.546 12.8851 19.1187 12.8851 18.638V15.9674C12.8851 15.5401 13.0836 15.1128 13.4804 14.8457L15.6136 13.5104C15.9608 13.2967 16.4073 13.2967 16.8042 13.5104L18.9373 14.8991C19.2846 15.1128 19.5326 15.5401 19.5326 16.0208V17.7834L21.4178 16.6083V14.7923C21.4178 14.365 21.2193 13.9377 20.8225 13.6706L16.8538 11.1602C16.5065 10.9466 16.0601 10.9466 15.6632 11.1602L11.5953 13.724C11.1984 13.9377 11 14.365 11 14.7923V19.8131C11 20.2404 11.1984 20.6677 11.5953 20.9347L15.6136 23.4451C15.9608 23.6588 16.4073 23.6588 16.8042 23.4451L19.5326 21.7359L21.4178 20.5608L24.1462 18.8516C24.4935 18.638 24.9399 18.638 25.3368 18.8516L27.47 20.1869C27.8172 20.4006 28.0653 20.8279 28.0653 21.3086V23.9792C28.0653 24.4065 27.8668 24.8338 27.47 25.1009L25.3864 26.4362C25.0392 26.6499 24.5927 26.6499 24.1958 26.4362L22.0627 25.1009C21.7154 24.8872 21.4674 24.4599 21.4674 23.9792V22.27L19.5822 23.4451V25.2077C19.5822 25.635 19.7807 26.0623 20.1775 26.3294L24.1958 28.8398C24.5431 29.0534 24.9896 29.0534 25.3864 28.8398L29.4047 26.3294C29.752 26.1157 30 25.6884 30 25.2077V20.1335C30 19.7062 29.8016 19.2789 29.4047 19.0119L25.3864 16.5015Z" fill="#0F121D"/>
</g>
<defs>
<clipPath id="clip0_38_3940">
<rect width="40" height="40" fill="white"/>
</clipPath>
</defs>
</svg>
